<svg xmlns="http://www.w3.org/2000/svg" viewBox="0 0 100 100">
  <defs>
    <linearGradient id="grad" x1="0%" y1="0%" x2="100%" y2="100%">
      <stop offset="0%" style="stop-color:#667eea;stop-opacity:1" />
      <stop offset="100%" style="stop-color:#764ba2;stop-opacity:1" />
    </linearGradient>
    <linearGradient id="innerGrad" x1="0%" y1="0%" x2="100%" y2="100%">
      <stop offset="0%" style="stop-color:#4ade80;stop-opacity:1" />
      <stop offset="100%" style="stop-color:#22c55e;stop-opacity:1" />
    </linearGradient>
  </defs>
  
  <!-- 배경 원 -->
  <circle cx="50" cy="50" r="48" fill="url(#grad)"/>
  
  <!-- 시계 외곽 -->
  <circle cx="50" cy="50" r="42" fill="white" opacity="0.95"/>
  <circle cx="50" cy="50" r="38" fill="url(#innerGrad)"/>
  
  <!-- 시계 숫자 마커 (12, 3, 6, 9) -->
  <rect x="48" y="12" width="4" height="6" rx="2" fill="white" opacity="0.9"/>
  <rect x="82" y="48" width="6" height="4" rx="2" fill="white" opacity="0.9"/>
  <rect x="48" y="82" width="4" height="6" rx="2" fill="white" opacity="0.9"/>
  <rect x="12" y="48" width="6" height="4" rx="2" fill="white" opacity="0.9"/>
  
  <!-- 시계 중심 -->
  <circle cx="50" cy="50" r="3" fill="white"/>
  
  <!-- 시침 (12시 방향) -->
  <line x1="50" y1="50" x2="50" y2="30" stroke="white" stroke-width="3" stroke-linecap="round"/>
  
  <!-- 분침 (3시 방향) -->
  <line x1="50" y1="50" x2="65" y2="50" stroke="white" stroke-width="2.5" stroke-linecap="round"/>
  
  <!-- 초침 (밀리초 표시용 - 더 정밀하게) -->
  <line x1="50" y1="50" x2="50" y2="20" stroke="#fbbf24" stroke-width="1.5" stroke-linecap="round"/>
  
  <!-- 밀리초 표시 (작은 점들) -->
  <circle cx="50" cy="25" r="1.5" fill="#fbbf24"/>
  <circle cx="50" cy="22" r="1" fill="#fbbf24" opacity="0.8"/>
  
  <!-- 정확도 표시 (작은 별) -->
  <path d="M 50 15 L 51 18 L 54 18 L 51.5 20 L 52.5 23 L 50 21 L 47.5 23 L 48.5 20 L 46 18 L 49 18 Z" 
        fill="#fbbf24" opacity="0.9"/>
</svg>
